<svg width="15" height="16" viewBox="0 0 15 16" fill="none" xmlns="http://www.w3.org/2000/svg">
<path d="M14.7364 13.9912L8.7422 8.00034L14.7364 2.05357C15.0368 1.70565 15.0205 1.18354 14.699 0.855259C14.3776 0.526979 13.8593 0.503201 13.5095 0.800685L7.49779 6.70334L1.59126 0.75657C1.24945 0.414477 0.697423 0.414477 0.355618 0.75657C0.189715 0.922238 0.0963975 1.14775 0.0963975 1.38301C0.0963975 1.61827 0.189715 1.84378 0.355618 2.00945L6.25339 7.9474L0.25922 13.8854C0.0933177 14.051 0 14.2765 0 14.5118C0 14.7471 0.0933177 14.9726 0.25922 15.1382C0.424602 15.3034 0.648488 15.3955 0.881422 15.3941C1.11008 15.3955 1.33023 15.3068 1.49486 15.1471L7.49779 9.19146L13.5095 15.2441C13.6749 15.4093 13.8988 15.5013 14.1317 15.5C14.3616 15.499 14.5819 15.4071 14.7451 15.2441C14.9099 15.0773 15.0016 14.8511 15 14.6158C14.9983 14.3806 14.9034 14.1557 14.7364 13.9912Z" fill="white"/>
</svg>
