<svg width="18" height="23" viewBox="0 0 18 23" fill="none" xmlns="http://www.w3.org/2000/svg">
<path d="M9.05958 0.333333L7.46124 3.6C6.31913 5.93374 4.78842 8.05622 2.93458 9.87667L2.72458 10.075C1.53395 11.2309 0.853666 12.814 0.834577 14.4733V14.6833C0.803043 17.9326 2.73928 20.8785 5.73458 22.1383L6.03791 22.2667C8.00242 23.1011 10.2217 23.1011 12.1862 22.2667H12.2562C15.2739 20.9556 17.2101 17.9616 17.1679 14.6717V9.60833C16.1623 11.9049 14.336 13.7437 12.0462 14.765C12.0462 14.765 12.0462 14.765 11.9762 14.765C11.9062 14.765 11.0896 15.1033 10.7396 14.765C10.427 14.4487 10.397 13.9497 10.6696 13.5983L10.7512 13.54H10.8096C13.488 11.5041 14.1124 7.73201 12.2329 4.94167C10.7162 2.63167 9.05958 0.333333 9.05958 0.333333Z" fill="#CE4747"/>
</svg>
