<svg width="51" height="52" viewBox="0 0 51 52" fill="none" xmlns="http://www.w3.org/2000/svg">
<path fill-rule="evenodd" clip-rule="evenodd" d="M8.63124 16.7976C11.6619 9.52022 18.7629 4.77157 26.6461 4.75052C35.1423 4.70578 42.6968 10.1479 45.3453 18.2208C47.9937 26.2938 45.131 35.1534 38.2594 40.1502C31.3878 45.147 22.0772 45.1396 15.2136 40.1318L9.0936 46.2518C8.47136 46.8732 7.46333 46.8732 6.8411 46.2518C6.21963 45.6295 6.21963 44.6215 6.8411 43.9993L12.7698 38.0705C7.23189 32.4602 5.60056 24.0749 8.63124 16.7976ZM11.4727 30.6095C14.0173 36.7416 20.007 40.7354 26.6461 40.7268V40.6418C35.6567 40.6303 42.9715 33.3534 43.0298 24.343C43.0384 17.704 39.0446 11.7142 32.9126 9.1696C26.7805 6.62497 19.7193 8.02716 15.0248 12.7217C10.3302 17.4162 8.92805 24.4775 11.4727 30.6095Z" fill="white"/>
</svg>
