<svg width="33" height="33" viewBox="0 0 33 33" fill="none" xmlns="http://www.w3.org/2000/svg">
<path d="M9.75359 12.1337C11.1343 12.1337 12.2536 11.0144 12.2536 9.63371C12.2536 8.253 11.1343 7.13371 9.75359 7.13371C8.37288 7.13371 7.25359 8.253 7.25359 9.63371C7.25359 11.0144 8.37288 12.1337 9.75359 12.1337Z" fill="#FBFBFB"/>
<path fill-rule="evenodd" clip-rule="evenodd" d="M15.7203 0.367048H15.5869L5.58693 1.08371C3.25785 1.29212 1.412 3.13798 1.20359 5.46705L0.47026 15.467C0.378182 16.3872 0.69508 17.3013 1.33693 17.967L15.4036 32.0337C15.9977 32.606 16.7955 32.9179 17.6203 32.9004C18.8821 32.8894 20.0853 32.366 20.9536 31.4504L31.5703 20.8504C33.2194 19.4832 33.4782 17.0506 32.1536 15.367L18.0036 1.20038C17.4065 0.632724 16.6107 0.321602 15.7869 0.333715L15.7203 0.367048ZM15.7869 3.05038C15.8846 3.01967 15.9893 3.01967 16.0869 3.05038L30.1703 17.1337C30.3065 17.7584 30.0734 18.4059 29.5703 18.8004L18.9203 29.4504C18.5694 29.831 18.0866 30.0635 17.5703 30.1004H17.2869L3.2536 15.9504C3.20877 15.8323 3.20877 15.7018 3.2536 15.5837L3.98693 5.58371C4.11776 4.67674 4.81737 3.95695 5.72026 3.80038L15.7203 3.08371L15.7869 3.05038Z" fill="#FBFBFB"/>
</svg>
