<svg width="48" height="47" viewBox="0 0 48 47" fill="none" xmlns="http://www.w3.org/2000/svg">
<path fill-rule="evenodd" clip-rule="evenodd" d="M27.8796 16.4395H41.7046C45.1796 16.4395 47.7796 20.3895 46.9296 24.5145L43.8796 41.2395C43.6051 43.9991 41.4155 46.1782 38.6546 46.4395H9.20464C6.40489 46.2238 4.16183 44.0333 3.87964 41.2395L0.62964 24.4645C-0.12036 20.3395 2.47964 16.3895 5.95464 16.3895H20.9546L10.0296 3.36451C9.58235 2.49447 9.81214 1.42962 10.5784 0.821468C11.3447 0.213314 12.4339 0.231336 13.1796 0.864507L24.5296 14.2395L34.5296 0.864507C34.8537 0.401132 35.3567 0.0943478 35.917 0.0183731C36.4773 -0.0576016 37.0439 0.104154 37.4796 0.464507C38.3726 1.1546 38.5503 2.43186 37.8796 3.33951L27.8796 16.4395ZM39.9546 40.5145L43.0046 23.7895C43.2408 22.7701 43.0118 21.6984 42.3796 20.8645C42.2193 20.6396 41.9768 20.4869 41.7046 20.4395H6.05464C5.78249 20.4869 5.53998 20.6396 5.37964 20.8645C4.74748 21.6984 4.51849 22.7701 4.75464 23.7895L7.80464 40.5145C8.00464 41.6895 8.70464 42.3645 9.10464 42.3645H38.6546C39.0546 42.3645 39.7546 41.6895 39.9546 40.5145Z" fill="white"/>
<path d="M24.6296 24.4145C23.4975 24.4145 22.5796 25.3323 22.5796 26.4645V33.9645C22.5933 35.0869 23.5071 35.9896 24.6296 35.9895C25.7618 35.9895 26.6796 35.0717 26.6796 33.9395V26.4395C26.666 25.3171 25.7521 24.4144 24.6296 24.4145Z" fill="white"/>
<path d="M14.2546 25.8645C13.9749 25.1366 13.3064 24.6304 12.5298 24.5586C11.7533 24.4868 11.0033 24.8618 10.5948 25.5261C10.1863 26.1904 10.1901 27.0289 10.6046 27.6895L14.7046 35.8645C15.0436 36.5614 15.7547 36.9998 16.5296 36.9895C16.8415 36.9977 17.1506 36.9291 17.4296 36.7895C17.9173 36.5478 18.2888 36.1221 18.4623 35.6063C18.6358 35.0904 18.5971 34.5268 18.3546 34.0395L14.2546 25.8645Z" fill="white"/>
<path d="M37.9046 24.8145C37.4186 24.5651 36.8523 24.5226 36.3345 24.6968C35.8166 24.871 35.3912 25.247 35.1546 25.7395L31.0546 33.9145C30.8122 34.4018 30.7735 34.9654 30.947 35.4813C31.1205 35.9971 31.492 36.4228 31.9796 36.6645C32.2593 36.8022 32.568 36.8707 32.8796 36.8645C33.6546 36.8748 34.3657 36.4364 34.7046 35.7395L38.8796 27.5645C39.1187 27.0711 39.1501 26.5025 38.9669 25.9857C38.7837 25.469 38.4011 25.0472 37.9046 24.8145Z" fill="white"/>
</svg>
