<svg width="53" height="53" viewBox="0 0 53 53" fill="none" xmlns="http://www.w3.org/2000/svg">
<g clip-path="url(#clip0_668_694)">
<path d="M49.6079 29.4766C49.3983 31.7216 49.117 33.9604 48.5398 36.1452C47.8922 38.5961 46.5575 40.7387 44.7566 42.5151C43.0127 44.2358 40.9351 45.5909 38.7904 46.7586C37.5537 47.432 36.2382 47.8162 34.8662 48.1075C34.2829 48.2313 33.6781 48.3145 33.1054 48.4799C32.7875 48.5716 32.4831 48.715 32.1821 48.8506C31.3851 49.2095 30.5898 49.6083 29.7449 49.8446C29.5522 49.8986 29.316 49.9526 29.0798 49.97L26.3946 52.6509L52.7593 52.6414V26.3305L49.6079 29.4766Z" fill="#3E3E47"/>
<path d="M52.5474 22.9909C52.3978 21.8161 52.1694 20.6527 51.8637 19.5084C51.5759 18.4332 51.2199 17.3773 50.7978 16.3471C50.3483 15.2507 49.8248 14.1861 49.2308 13.1605C48.6728 12.1971 48.0536 11.2702 47.377 10.3856C46.6573 9.44403 45.8753 8.55158 45.0362 7.71426L41.2907 11.4521C41.9611 12.1213 42.5859 12.8344 43.1609 13.5869C43.7014 14.2938 44.1961 15.0345 44.6422 15.8043C45.1201 16.6295 45.5378 17.4806 45.894 18.3508C46.2328 19.1776 46.5169 20.0214 46.7457 20.877C46.9909 21.7939 47.173 22.7237 47.2925 23.6597C47.4046 24.5423 47.4615 25.4311 47.4615 26.3193H52.7587C52.7587 25.2072 52.6877 24.0957 52.5474 22.9909Z" fill="#8CBEB2"/>
<path d="M44.2065 21.5559C44.0055 20.804 43.7566 20.0656 43.4614 19.3453C43.1472 18.5785 42.7811 17.8339 42.3656 17.1166C41.9752 16.4429 41.5422 15.7947 41.0692 15.176C40.5658 14.5175 40.019 13.8932 39.4324 13.3073L35.6971 17.0351C36.1215 17.4592 36.5104 17.9053 36.8644 18.3688C37.2048 18.8148 37.5132 19.2772 37.7894 19.7537C38.0881 20.2689 38.3491 20.8005 38.5717 21.3433C38.7831 21.8597 38.9606 22.3862 39.1038 22.9206C39.2571 23.4932 39.3704 24.0737 39.4448 24.6588C39.5152 25.21 39.5508 25.7646 39.5513 26.3193H44.8338C44.8338 25.5419 44.7842 24.7639 44.6856 23.9916C44.5802 23.172 44.4207 22.3581 44.2065 21.5559Z" fill="#8CBEB2"/>
<path d="M36.5515 23.6029C36.4371 23.176 36.2956 22.7547 36.1265 22.3423C35.7783 21.4935 35.3197 20.694 34.7625 19.9646C34.4759 19.5888 34.1642 19.2327 33.8297 18.8986L30.118 22.6028C30.2877 22.7727 30.4433 22.951 30.5853 23.1372C30.7217 23.3155 30.8451 23.5011 30.9551 23.6918C31.1852 24.0894 31.362 24.5155 31.4809 24.9591C31.5422 25.1877 31.588 25.4202 31.6179 25.655C31.6461 25.8755 31.6608 26.0976 31.6608 26.3198H36.9095C36.9095 25.8766 36.8807 25.4328 36.8243 24.9923C36.7646 24.5243 36.6738 24.0602 36.5515 23.6029Z" fill="#8CBEB2"/>
<path d="M23.5555 47.176C22.6734 47.0579 21.798 46.8835 20.9339 46.654C20.0165 46.4099 19.1165 46.1043 18.2403 45.7394C17.4169 45.3962 16.6166 45.0005 15.8442 44.5547C15.0219 44.0807 14.2329 43.5515 13.4825 42.9707C12.7776 42.425 12.1078 41.8357 11.477 41.2061L7.73157 44.944C8.52078 45.7317 9.35889 46.4691 10.2409 47.1518C11.1798 47.8784 12.1669 48.5405 13.1956 49.1336C14.1621 49.6908 15.1633 50.1859 16.1931 50.6158C17.2892 51.073 18.4151 51.4554 19.5631 51.7605C20.6416 52.0471 21.737 52.2654 22.843 52.4141C24.021 52.5722 25.2075 52.6515 26.394 52.6509V47.3645C25.4454 47.365 24.4968 47.302 23.5555 47.176Z" fill="#F2EBBF"/>
<path d="M24.6202 39.3504C24.069 39.2767 23.5217 39.1687 22.9817 39.0252C22.4107 38.8739 21.8488 38.6827 21.2986 38.4537C20.7874 38.2405 20.2874 37.9942 19.801 37.714C19.2868 37.4183 18.7934 37.0879 18.3243 36.7251C17.8837 36.3842 17.465 36.016 17.0707 35.6226L13.3354 39.3504C13.8951 39.9084 14.4819 40.4236 15.0912 40.895C15.7482 41.4032 16.439 41.8664 17.1586 42.2816C17.8349 42.6715 18.5354 43.0178 19.256 43.3183C20.0228 43.6381 20.8105 43.9055 21.6137 44.1188C22.3701 44.3196 23.1367 44.472 23.9083 44.5755C24.7324 44.6858 25.5626 44.7409 26.3923 44.7403V39.4685C25.8011 39.4691 25.2087 39.4291 24.6202 39.3504Z" fill="#F2EBBF"/>
<path d="M21.1222 35.4308C21.5111 35.6547 21.9113 35.8516 22.3199 36.022C22.7596 36.2054 23.2094 36.3578 23.6659 36.4788C24.0977 36.5935 24.5351 36.6796 24.9759 36.7386C25.4459 36.8016 25.92 36.8332 26.3934 36.8326V31.5945C26.1556 31.5951 25.9177 31.5793 25.6821 31.5484C25.4612 31.5191 25.2413 31.4758 25.0243 31.419C24.7942 31.3581 24.5684 31.2818 24.3485 31.1906C24.1419 31.1048 23.941 31.0057 23.7471 30.8942C23.5405 30.7758 23.3424 30.6433 23.1541 30.4976C22.9794 30.3626 22.8109 30.2152 22.6502 30.0555L18.9386 33.7596C19.2582 34.078 19.593 34.3722 19.9413 34.641C20.3207 34.9336 20.7152 35.1968 21.1222 35.4308Z" fill="#F2EBBF"/>
<path d="M47.4621 26.3193C47.4621 27.2649 47.399 28.2104 47.2722 29.1487C47.1538 30.0279 46.9791 30.9009 46.7491 31.7621C46.505 32.6769 46.199 33.5741 45.8332 34.4475C45.4893 35.2682 45.0934 36.0661 44.6478 36.8365C44.1735 37.6565 43.6439 38.4434 43.0628 39.1918C42.5167 39.8947 41.9269 40.5628 41.2969 41.192L45.0424 44.9299C45.8309 44.1427 46.569 43.3069 47.2525 42.4273C47.9799 41.4909 48.6428 40.5063 49.2365 39.4803C49.7945 38.5164 50.29 37.5177 50.72 36.4906C51.1777 35.3975 51.5608 34.2748 51.8665 33.1301C52.1545 32.0524 52.3727 30.9594 52.5215 29.8597C52.6798 28.6852 52.7593 27.5017 52.7593 26.3187L47.4621 26.3193Z" fill="#FFB95C" fill-opacity="0.71"/>
<path d="M43.4072 33.4333C43.7272 32.6689 43.995 31.8837 44.2088 31.0832C44.41 30.3294 44.5627 29.565 44.6664 28.7954C44.7775 27.9742 44.8327 27.1467 44.8327 26.3187H39.5502C39.5502 26.9094 39.5102 27.4994 39.4313 28.0856C39.279 29.2232 38.9771 30.3359 38.5334 31.3948C38.0896 32.454 37.5084 33.4505 36.8046 34.3587C36.4636 34.7979 36.0954 35.2153 35.7021 35.6086L39.4375 39.3363C39.996 38.7783 40.5112 38.1933 40.983 37.5852C41.4916 36.9302 41.955 36.2414 42.3701 35.5236C42.763 34.8458 43.1085 34.1472 43.4072 33.4333Z" fill="#FFB95C" fill-opacity="0.71"/>
<path d="M36.5538 29.0362C36.6683 28.6064 36.7551 28.1705 36.8142 27.7317C36.8774 27.2632 36.9095 26.7912 36.9089 26.3193H31.6602C31.6602 26.5555 31.6444 26.7918 31.6129 27.0269C31.5834 27.2473 31.5401 27.4656 31.4832 27.6806C31.3037 28.3551 30.9913 28.9873 30.5645 29.5402C30.4298 29.714 30.2827 29.8817 30.1237 30.0414L33.8354 33.7455C34.1538 33.4271 34.4475 33.093 34.7163 32.7465C35.0094 32.3685 35.2721 31.9753 35.5066 31.5697C35.7303 31.1822 35.9276 30.7839 36.0978 30.3767C36.2805 29.9385 36.4327 29.4907 36.5538 29.0362Z" fill="#FFB95C" fill-opacity="0.71"/>
<path d="M41.2969 41.1926C41.2935 41.196 41.2907 41.1994 41.2873 41.2027C40.6198 41.8691 39.9086 42.4903 39.1584 43.0624C38.4498 43.6027 37.7075 44.0974 36.9359 44.5435C36.1146 45.0181 35.2619 45.4364 34.3837 45.7956C33.5587 46.1333 32.7128 46.418 31.8513 46.6478C30.9344 46.8926 30.0021 47.0754 29.0606 47.1951C28.1757 47.3076 27.2846 47.3645 26.3934 47.365V52.6515C27.5092 52.6509 28.6239 52.58 29.7308 52.4394C30.906 52.2904 32.0728 52.062 33.2226 51.7548C34.3006 51.4672 35.359 51.1112 36.3915 50.6889C37.4904 50.2397 38.5574 49.7163 39.5851 49.1223C40.5416 48.5699 41.4705 47.9523 42.3661 47.2694C43.3058 46.553 44.1966 45.775 45.0328 44.9406L45.0429 44.9305L41.2969 41.1926Z" fill="#F06060"/>
<path d="M31.3852 38.4852C30.8677 38.6973 30.339 38.8751 29.8036 39.0185C29.2308 39.1715 28.6484 39.2857 28.0602 39.3605C27.5076 39.4311 26.9511 39.467 26.394 39.4679V44.7398C27.1741 44.7392 27.9537 44.6892 28.7287 44.5907C29.5505 44.4861 30.3666 44.3263 31.1715 44.1115C31.9223 43.9106 32.663 43.662 33.3884 43.3656C34.8805 42.7549 36.2854 41.9506 37.5667 40.9732C38.2229 40.4728 38.8451 39.9293 39.429 39.3464L39.4386 39.3369L35.7033 35.6091L35.6937 35.6187C35.2778 36.0337 34.8348 36.4206 34.3674 36.7769C33.925 37.1144 33.4615 37.4235 32.9797 37.7022C32.4623 38.0015 31.9296 38.2625 31.3852 38.4852Z" fill="#F06060"/>
<path d="M27.7259 36.7465C28.1949 36.6863 28.6604 36.5958 29.1198 36.4726C29.5482 36.3578 29.9704 36.2155 30.3841 36.0456C30.8192 35.8673 31.2453 35.6581 31.6579 35.419C32.0395 35.1979 32.4098 34.9516 32.7672 34.6787C33.1353 34.398 33.4887 34.0904 33.8252 33.7545L33.8348 33.745L30.1231 30.0408L30.1135 30.0504C29.9487 30.2147 29.7734 30.3682 29.5888 30.51C29.0442 30.9269 28.423 31.2332 27.7603 31.4117C27.5307 31.4734 27.2972 31.5196 27.0614 31.5501C26.8399 31.5787 26.6161 31.5934 26.3929 31.5939V36.832C26.8387 36.832 27.2835 36.8028 27.7259 36.7465Z" fill="#F06060"/>
<path d="M9.6029 39.0691C9.06161 38.3613 8.5661 37.6197 8.11938 36.8489C7.1961 35.2557 6.48785 33.5478 6.01302 31.7694C5.76859 30.8538 5.58593 29.9228 5.46627 28.9827C5.35402 28.0995 5.29792 27.2101 5.29831 26.3198C5.29831 25.3731 5.36256 24.4264 5.49051 23.487C5.61033 22.6048 5.78579 21.731 6.01583 20.8708C6.49159 19.0931 7.2006 17.3859 8.12445 15.7936C8.60016 14.9736 9.13102 14.1867 9.71338 13.4383C10.2511 12.7476 10.8373 12.0827 11.4731 11.4488L11.4827 11.4392C12.154 10.7696 12.8696 10.1457 13.6245 9.57165C14.3409 9.02714 15.0844 8.53439 15.8493 8.09338C16.6712 7.61983 17.5245 7.20261 18.4032 6.8446C19.2323 6.5071 20.0789 6.22416 20.9368 5.99634C21.8561 5.75221 22.7884 5.57108 23.7274 5.45296C24.6123 5.34158 25.5029 5.28589 26.3935 5.28645C27.341 5.28702 28.289 5.35114 29.2292 5.47883C30.1102 5.59808 30.985 5.77302 31.8479 6.00309C32.7644 6.24771 33.6632 6.55405 34.5382 6.91998C35.3549 7.26142 36.1536 7.65687 36.9303 8.10519C37.7513 8.57924 38.5391 9.10847 39.2881 9.68922C39.9905 10.2335 40.658 10.8212 41.2868 11.4488C41.2879 11.4499 41.289 11.451 41.2902 11.4527L45.0356 7.71481L45.0322 7.71143C44.2451 6.92563 43.4094 6.18974 42.5302 5.50808C41.5926 4.78172 40.6068 4.11962 39.5795 3.52636C38.6141 2.96885 37.614 2.4734 36.5854 2.04302C35.4904 1.58534 34.3656 1.20214 33.2187 0.896062C30.9921 0.302657 28.6975 0.00142676 26.3929 -1.56984e-05C25.2786 -0.000578208 24.1642 0.0691725 23.0567 0.208675C21.8787 0.356892 20.7121 0.584288 19.5648 0.889312C18.4867 1.17594 17.4279 1.53066 16.3949 1.95133C15.2953 2.39937 14.2276 2.92146 13.199 3.51398C12.2328 4.07104 11.3031 4.68899 10.4157 5.36408C9.47113 6.08229 8.57592 6.86293 7.73609 7.70075C7.73271 7.70412 7.72933 7.70693 7.72651 7.71031C6.9406 8.49453 6.20454 9.32698 5.52264 10.2028C4.79406 11.139 4.12988 12.1234 3.53465 13.1492C2.97541 14.1133 2.47858 15.1121 2.04718 16.1395C1.58838 17.2331 1.20422 18.3563 0.89733 19.5016C0.609112 20.5778 0.389599 21.671 0.240114 22.7749C0.0806008 23.9505 0.00056365 25.1346 0 26.3193C0 27.4325 0.0704551 28.5451 0.21024 29.651C0.359044 30.8244 0.586759 31.9894 0.893948 33.1374C1.18158 34.2139 1.53778 35.271 1.96037 36.3021C2.40678 37.3923 2.92985 38.4582 3.52901 39.4921C4.08797 40.4564 4.70793 41.3842 5.38511 42.2698C6.10474 43.2109 6.88657 44.103 7.72538 44.94L7.72876 44.9434L11.4742 41.2055L11.4703 41.2016C10.8016 40.5325 10.1778 39.8201 9.6029 39.0691Z" fill="#3E3E47"/>
<path d="M15.9006 34.2872C15.5622 33.8448 15.2525 33.3813 14.9734 32.8995C14.6761 32.3869 14.4141 31.8546 14.1893 31.3065C13.9774 30.789 13.7998 30.2608 13.6567 29.7253C13.5034 29.1515 13.3901 28.5693 13.3157 27.9837C13.2456 27.4317 13.2104 26.8758 13.2103 26.3193C13.2103 25.7275 13.2514 25.1363 13.3309 24.5491C13.4058 23.9989 13.5146 23.4527 13.6589 22.9138C13.8117 22.3446 14.0039 21.7838 14.2344 21.2348C14.6801 20.1745 15.2641 19.1776 15.971 18.2698C16.3103 17.8342 16.6765 17.4201 17.0673 17.03L17.0769 17.0204C17.5025 16.5963 17.9506 16.2082 18.4161 15.8543C18.8637 15.514 19.3281 15.2069 19.8067 14.9313C20.3241 14.6337 20.8573 14.3733 21.4023 14.1511C21.9181 13.9412 22.4468 13.7644 22.9851 13.6217C23.5579 13.4699 24.1404 13.3568 24.7284 13.2831C25.2814 13.2139 25.8377 13.179 26.394 13.1796C26.9859 13.1802 27.5777 13.2212 28.1656 13.3011C28.7157 13.3759 29.2624 13.4845 29.8013 13.6285C30.3711 13.7809 30.932 13.9727 31.481 14.2023C31.9943 14.4168 32.4933 14.6643 32.9746 14.9431C33.4819 15.2361 33.9746 15.5658 34.4475 15.932C34.8854 16.2715 35.3016 16.6381 35.6937 17.0294L35.6976 17.0334L39.4329 13.3056L39.429 13.3017C38.879 12.7525 38.295 12.2383 37.6805 11.7621C37.0248 11.254 36.3354 10.7907 35.617 10.3755C34.9418 9.98551 34.2424 9.63886 33.5231 9.33767C32.0362 8.71581 30.4739 8.29161 28.8763 8.07596C28.0536 7.96459 27.2243 7.90841 26.394 7.90777C25.6145 7.9072 24.835 7.95558 24.0605 8.05346C23.2365 8.15702 22.4203 8.31582 21.6177 8.52878C20.0588 8.94253 18.5614 9.55967 17.1643 10.3642C16.4883 10.7538 15.8378 11.186 15.2169 11.658C14.556 12.1606 13.9295 12.7067 13.3416 13.2927L13.332 13.3022C12.783 13.8499 12.2689 14.4314 11.7927 15.0432C11.2827 15.6981 10.8179 16.3869 10.4016 17.1048C9.5929 18.4987 8.97222 19.9931 8.55564 21.5492C8.35387 22.302 8.20025 23.0669 8.0957 23.8392C7.984 24.6612 7.92788 25.4898 7.92773 26.3193C7.92773 27.0978 7.97677 27.8769 8.07485 28.6503C8.17933 29.4733 8.33921 30.2884 8.55338 31.0899C8.75404 31.8398 9.00262 32.5795 9.29966 33.3045C9.61431 34.0725 9.98097 34.8183 10.3971 35.5366C10.7882 36.2113 11.2222 36.8605 11.6963 37.48C12.1995 38.1378 12.7462 38.7613 13.3326 39.3464L13.3365 39.3504L17.0718 35.6226L17.0679 35.6187C16.6493 35.2015 16.2593 34.7567 15.9006 34.2872Z" fill="#3E3E47"/>
<path d="M24.3919 21.4406C24.5999 21.3563 24.8119 21.2865 25.0272 21.2297C25.704 21.051 26.4096 21.0082 27.1031 21.1037C27.3235 21.1341 27.5422 21.1779 27.7581 21.2359C27.9863 21.2972 28.2107 21.3743 28.4305 21.4665C28.855 21.6446 29.2541 21.8778 29.6175 22.1601C29.7894 22.294 29.9557 22.4396 30.1135 22.5971L30.1175 22.6011L33.8291 18.897L33.8252 18.893C33.5121 18.5806 33.1798 18.2879 32.8303 18.0166C32.4527 17.7236 32.0593 17.4603 31.6534 17.2257C30.8578 16.7658 30.005 16.4123 29.117 16.1744C28.6871 16.0594 28.2504 15.9719 27.8093 15.9123C26.8982 15.7876 25.9746 15.7827 25.0621 15.8977C24.5919 15.9562 24.1262 16.0466 23.6682 16.1682C23.2398 16.2818 22.8171 16.4225 22.4028 16.5907C21.9671 16.7679 21.5404 16.976 21.1267 17.2139C20.7446 17.4339 20.3731 17.6797 20.0152 17.9514C19.6377 18.2378 19.2799 18.5492 18.9443 18.8835L18.9347 18.893C18.6227 19.2042 18.3306 19.5344 18.0599 19.8819C17.7689 20.2557 17.5036 20.6486 17.2657 21.0581C17.0408 21.4457 16.8424 21.8445 16.6711 22.2518C16.4867 22.6905 16.3329 23.1388 16.2106 23.5945C16.0954 24.0243 16.0077 24.4609 15.9479 24.9018C15.8841 25.371 15.8517 25.844 15.851 26.3176C15.851 26.762 15.8791 27.2069 15.9349 27.6485C15.9941 28.1171 16.0849 28.5828 16.2077 29.0413C16.3222 29.4693 16.4642 29.8918 16.6339 30.3058C16.8125 30.7412 17.0217 31.167 17.2612 31.5799C17.4822 31.9613 17.7296 32.3319 18.003 32.6897C18.2859 33.0598 18.5965 33.4153 18.9352 33.7534L18.9392 33.7573L22.6508 30.0532L22.6469 30.0493C22.4798 29.8825 22.324 29.7047 22.1807 29.5171C22.0432 29.3377 21.9192 29.1515 21.8082 28.9603C21.6881 28.7527 21.5827 28.5389 21.4931 28.3207C21.4082 28.1137 21.3367 27.9016 21.2789 27.6856C21.2175 27.455 21.1718 27.2215 21.1419 26.9859C21.1137 26.7642 21.0997 26.5409 21.1002 26.3176C21.1002 26.0802 21.1171 25.8423 21.1493 25.6066C21.1797 25.3852 21.2239 25.166 21.2817 24.9501C21.3432 24.7217 21.4209 24.4967 21.5134 24.2762C21.5996 24.0721 21.6994 23.8718 21.8127 23.6772C21.9322 23.4716 22.0657 23.2744 22.2123 23.0871C22.3453 22.9167 22.4902 22.7524 22.6474 22.596L22.657 22.5865C22.8278 22.4166 23.0076 22.2613 23.1947 22.1196C23.3727 21.9848 23.559 21.8615 23.7528 21.7506C23.9589 21.6337 24.1724 21.5301 24.3919 21.4406Z" fill="#3E3E47"/>
<path d="M27.0744 28.8545C27.1815 28.8253 27.2869 28.7898 27.39 28.7471C27.4982 28.7021 27.6048 28.6498 27.7073 28.5896C27.802 28.5339 27.8939 28.4714 27.983 28.4034C28.072 28.3348 28.1577 28.2611 28.2389 28.1795C28.2422 28.1761 28.2451 28.1727 28.2479 28.1699C28.3257 28.0911 28.3986 28.0075 28.466 27.9196C28.6057 27.7384 28.7209 27.5396 28.8087 27.3284C28.8955 27.1173 28.9548 26.8959 28.9851 26.6697C29.0004 26.5533 29.0088 26.4357 29.0082 26.3187C29.0082 26.2085 29.0004 26.0982 28.9863 25.9885C28.9716 25.8721 28.9485 25.7573 28.9181 25.6431C28.8595 25.4229 28.7717 25.2114 28.6571 25.0143C28.6024 24.9198 28.541 24.8275 28.4733 24.7392C28.4022 24.6457 28.325 24.5571 28.2422 24.4737L28.2383 24.4697C28.1612 24.3932 28.0796 24.3214 27.9937 24.2549C27.8137 24.1138 27.6156 23.9975 27.4047 23.9089C27.2953 23.8628 27.1843 23.8245 27.071 23.7936C26.9639 23.7644 26.8551 23.7419 26.7458 23.7267C26.5187 23.6949 26.2885 23.693 26.0609 23.721C25.9437 23.7351 25.8276 23.757 25.7131 23.7869C25.6061 23.815 25.5001 23.8487 25.3969 23.8904C25.2882 23.9342 25.1816 23.986 25.0779 24.0451C24.9821 24.0996 24.8891 24.1604 24.7995 24.2279C24.7048 24.2991 24.615 24.3765 24.5306 24.4596C24.5272 24.463 24.5238 24.4658 24.521 24.4686C24.4454 24.5442 24.3747 24.6244 24.3091 24.7088C24.2353 24.8033 24.1682 24.9012 24.109 25.0019C24.0521 25.0986 24.0025 25.1988 23.9596 25.3006C23.9129 25.4103 23.8745 25.5228 23.8435 25.6364C23.7829 25.8588 23.752 26.0882 23.7516 26.3187C23.7516 26.4301 23.759 26.5415 23.7725 26.6523C23.7872 26.7698 23.8103 26.8863 23.8407 27.0016C23.8694 27.1094 23.9048 27.2154 23.9467 27.3189C23.9912 27.428 24.0442 27.5349 24.1039 27.6384C24.1592 27.734 24.2217 27.8268 24.2905 27.9162C24.361 28.0079 24.437 28.0962 24.521 28.1801L24.525 28.184C24.6042 28.2626 24.6884 28.336 24.7769 28.4039C24.8722 28.4771 24.9708 28.5429 25.0728 28.6014C25.1704 28.6571 25.2707 28.7066 25.3733 28.7488C25.4837 28.7943 25.5965 28.8314 25.7109 28.8618C25.8191 28.89 25.9285 28.9113 26.0389 28.9259C26.1567 28.9411 26.2751 28.949 26.3935 28.9485C26.5045 28.9479 26.6156 28.94 26.726 28.9254C26.8433 28.9091 26.9594 28.886 27.0744 28.8545Z" fill="#3E3E47"/>
</g>
<defs>
<clipPath id="clip0_668_694">
<rect width="53" height="53" fill="white"/>
</clipPath>
</defs>
</svg>
