<svg width="26" height="26" viewBox="0 0 26 26" fill="none" xmlns="http://www.w3.org/2000/svg">
<path d="M15.8549 2.73804L16.7624 5.48804C17.1725 6.76086 18.3539 7.62614 19.6912 7.63304H22.5512C23.8925 7.62452 25.0851 8.48505 25.4998 9.76066C25.9145 11.0363 25.456 12.4336 24.3662 13.2155L22.0149 14.9205C20.9326 15.7063 20.4777 17.0986 20.8874 18.3718L21.7949 21.1218C22.2438 22.3993 21.8056 23.8202 20.7151 24.623C19.6247 25.4258 18.1378 25.4223 17.0512 24.6143L14.7412 22.8955C13.6583 22.1111 12.194 22.1111 11.1112 22.8955L8.80115 24.6143C7.7206 25.4052 6.25286 25.4073 5.17005 24.6195C4.08724 23.8317 3.63749 22.4346 4.0574 21.163L4.9649 18.413C5.3746 17.1398 4.91974 15.7475 3.8374 14.9618L1.43115 13.2293C0.319186 12.4458 -0.147104 11.0256 0.284007 9.73541C0.715118 8.44525 1.94152 7.59068 3.30115 7.63304H6.16115C7.49105 7.63006 8.67025 6.77749 9.0899 5.51554L9.9974 2.76554C10.4042 1.49532 11.5824 0.631296 12.9162 0.625034C14.2499 0.618772 15.4362 1.4717 15.8549 2.73804Z" fill="#D2C86B"/>
</svg>
