<svg width="36" height="46" viewBox="0 0 36 46" fill="none" xmlns="http://www.w3.org/2000/svg">
<path fill-rule="evenodd" clip-rule="evenodd" d="M35.055 33.5975L35.595 36.1625C36.1068 38.3801 35.6015 40.7103 34.2173 42.5168C32.833 44.3233 30.7144 45.4173 28.44 45.5H7.56003C5.28567 45.4173 3.16706 44.3233 1.78281 42.5168C0.398562 40.7103 -0.106697 38.3801 0.405029 36.1625L0.945029 33.5975C1.56611 30.1252 4.55093 27.5736 8.07753 27.5H27.9225C31.4491 27.5736 34.434 30.1252 35.055 33.5975ZM28.44 42.1025C29.5826 42.0893 30.6578 41.5599 31.365 40.6625V40.685C32.2328 39.5964 32.5709 38.178 32.2875 36.815L31.7475 34.25C31.4479 32.3491 29.8455 30.9258 27.9225 30.8525H8.07754C6.15461 30.9258 4.55215 32.3491 4.25254 34.25L3.71254 36.815C3.43614 38.1708 3.77388 39.5794 4.63504 40.6625C5.34229 41.5599 6.41751 42.0893 7.56004 42.1025H28.44Z" fill="white"/>
<path fill-rule="evenodd" clip-rule="evenodd" d="M19.125 23H16.875C11.9044 23 7.875 18.9705 7.875 14V8.05997C7.869 6.0531 8.66357 4.1267 10.0826 2.70762C11.5017 1.28854 13.4281 0.493973 15.435 0.499973H20.565C22.5719 0.493973 24.4983 1.28854 25.9173 2.70762C27.3364 4.1267 28.131 6.0531 28.125 8.05997V14C28.125 18.9705 24.0956 23 19.125 23ZM15.435 3.87497C13.1237 3.87497 11.25 5.74866 11.25 8.05997V14C11.25 17.1066 13.7684 19.625 16.875 19.625H19.125C22.2316 19.625 24.75 17.1066 24.75 14V8.05997C24.75 6.95004 24.3091 5.88557 23.5242 5.10073C22.7394 4.31589 21.6749 3.87497 20.565 3.87497H15.435Z" fill="white"/>
</svg>
